# xmcd
#
# Track frame offsets: 
#        150
#        13165
#        24828
#        37505
#        55620
#        68178
#        81255
#        95570
#        109350
#        122303
#        134998
#        152515
#
# Disc length: 2203 seconds
#
# Revision: 7
# Processed by: cddbd v1.5.1PL0 Copyright (c) Steve Scherf et al.
# Submitted via: ExactAudioCopy v0.95a5
#
DISCID=9108990c
DTITLE=Various Artist - Jewel Spotlights the Blues- Volume 1
DYEAR=1994
DGENRE=Blues
TTITLE0=Carter Brothers - Southern Country Boy
TTITLE1=Frank Frost - My Back Scratcher
TTITLE2=Elmore James - Dust My Broom
TTITLE3=Lightnin' Hopkins - Back Door Friend
TTITLE4=Little Joe Blue - Standing On the Threshold
TTITLE5=George "Wild Child" Butler - Put It All In There
TTITLE6=Lowell Fulson - Sleeper
TTITLE7=Big Joe Turner - Night Time Is the Right Time
TTITLE8=Big Mac with Hubert Sumlin - Rough Dried Woman (Part 1)
TTITLE9=Hubert Sumlin - Rough Dried Woman (Part 2 - instrumental)
TTITLE10=Willie Dixon - Sex Appeal
TTITLE11=J. B. Lenoir - The Mojo
EXTD=LABEL =Jewel Records - Paula Recods - Sue Records, Inc.\nID =JCD-
EXTD=5015\nUPC =097453-5015-29\nCOPYRIGHT =1994
EXTT0=
EXTT1=
EXTT2=
EXTT3=
EXTT4=
EXTT5=
EXTT6=
EXTT7=
EXTT8=
EXTT9=
EXTT10=
EXTT11=
PLAYORDER=
